# Blender v2.79 (sub 0) OBJ File: 'Asteroid.blend'
# www.blender.org
mtllib asteroid.mtl
o Icosphere_Icosphere.004
v -0.093849 0.031146 -0.041167
v 0.668823 0.569855 0.557028
v -0.356358 0.611555 0.779995
v -0.975536 0.597611 -0.056963
v -0.371444 0.606531 -0.878690
v 0.603569 0.623304 -0.549383
v 0.233750 1.550701 0.900068
v -0.939316 1.561606 0.578598
v -0.868158 1.504350 -0.605543
v 0.207869 1.522453 -0.987353
v 0.922468 1.530402 -0.024447
v -0.093703 2.090953 -0.041101
v -0.258241 0.163938 0.469063
v 0.354182 0.130538 0.280396
v 0.151785 0.535794 0.751691
v 0.761018 0.528895 -0.058882
v 0.331504 0.180597 -0.350171
v -0.621013 0.178869 -0.042236
v -0.827343 0.472225 0.519420
v -0.256304 0.180492 -0.541162
v -0.767862 0.548033 -0.528581
v 0.172961 0.518479 -0.842694
v 0.882831 1.037461 0.277279
v 0.856343 1.021232 -0.347476
v -0.093867 0.995015 1.080985
v 0.512248 1.019006 0.788878
v -1.071320 1.037510 0.277542
v -0.700189 1.019112 0.789234
v -0.667581 1.013416 -0.823335
v -1.044863 1.021227 -0.347708
v 0.479884 1.013416 -0.823335
v -0.093849 1.012214 -1.018808
v 0.725720 1.628297 0.568578
v -0.399830 1.629842 0.856790
v -1.045098 1.620772 -0.036402
v -0.425245 1.648827 -1.016081
v 0.720627 1.661326 -0.643151
v 0.074548 1.914261 0.477026
v 0.454123 1.926023 -0.041244
v -0.550942 1.964886 0.299187
v -0.563152 1.974936 -0.379081
v 0.057719 1.872038 -0.573373
vt 0.488605 0.522601
vt 0.588130 0.450293
vt 0.450591 0.405604
vt 0.322675 0.193612
vt 0.326794 0.300693
vt 0.225930 0.271789
vt 0.365586 0.522601
vt 0.450591 0.639599
vt 0.588130 0.594909
vt 0.225929 0.129091
vt 0.206276 0.602155
vt 0.080843 0.625107
vt 0.137838 0.499929
vt 0.436240 0.080137
vt 0.327570 0.127224
vt 0.431155 0.207235
vt 0.725783 0.867780
vt 0.822748 0.882635
vt 0.794794 0.760550
vt 0.886780 0.014827
vt 0.778371 0.000388
vt 0.858825 0.120562
vt 0.326794 0.069803
vt 0.275287 0.494925
vt 0.553323 0.129847
vt 0.657344 0.765553
vt 0.110566 0.318287
vt 0.000388 0.261661
vt 0.101254 0.202373
vt 0.808485 0.969685
vt 0.691485 0.921426
vt 0.808485 0.883411
vt 0.117386 0.907535
vt 0.000388 0.859276
vt 0.117386 0.821260
vt 0.973432 0.250790
vt 0.973432 0.126407
vt 0.887555 0.186691
vt 0.324736 0.971152
vt 0.324736 0.843637
vt 0.235160 0.931169
vt 0.916784 0.753107
vt 0.916784 0.871539
vt 0.823524 0.767752
vt 0.811450 0.440549
vt 0.726445 0.557547
vt 0.688430 0.440549
vt 0.849465 0.557548
vt 0.753105 0.639600
vt 0.588906 0.512857
vt 0.626920 0.629856
vt 0.999612 0.763395
vt 0.917560 0.667036
vt 0.999612 0.640375
vt 0.234384 0.736258
vt 0.117387 0.698241
vt 0.234384 0.859277
vt 0.690709 0.883411
vt 0.588906 0.954875
vt 0.690709 0.988335
vt 0.000389 0.736256
vt 0.978757 0.125631
vt 0.887555 0.036511
vt 0.978757 0.000388
vt 0.726445 0.323552
vt 0.849465 0.323551
vt 0.880482 0.640375
vt 0.000388 0.118962
vt 0.110563 0.075515
vt 0.789814 0.227792
vt 0.886780 0.242647
vt 0.714339 0.640375
vt 0.588906 0.663327
vt 0.822748 0.654814
vt 0.558070 0.272466
vt 0.652162 0.191115
vt 0.444316 0.322775
vt 0.194832 0.374751
vt 0.303241 0.389190
vt 0.069399 0.397702
vt 0.939819 0.582732
vt 0.850241 0.495199
vt 0.939819 0.455214
vt 0.850241 0.363500
vt 0.960210 0.323551
vt 0.960210 0.454438
vt 0.202117 0.000388
vt 0.721376 0.125566
vt 0.652938 0.023339
vt 0.652162 0.067238
vt 0.525245 0.002007
vt 0.332316 0.269844
vt 0.303241 0.617010
vt 0.000388 0.504932
vt 0.317212 0.842861
vt 0.235160 0.770553
vt 0.317212 0.698241
vt 0.427096 0.867045
vt 0.327570 0.794736
vt 0.357298 0.917756
vt 0.427096 0.722427
vt 0.939966 0.970410
vt 0.939966 0.872315
vt 0.823524 0.924290
vt 0.327570 0.639600
vt 0.423931 0.721651
vt 0.385722 0.000388
vt 0.327570 0.405603
vt 0.423931 0.323551
vt 0.202121 0.373975
vt 0.427872 0.722427
vt 0.427872 0.845447
vt 0.544869 0.760444
vt 0.544869 0.883463
vt 0.183068 0.697466
vt 0.550116 0.333294
vt 0.544870 0.970513
vt 0.544870 0.884239
vt 0.427872 0.932498
vn 0.0275 -0.9652 0.2601
vn 0.7542 -0.6380 0.1553
vn -0.2666 -0.9502 0.1614
vn -0.2642 -0.9443 -0.1962
vn 0.1026 -0.9435 -0.3151
vn 0.9303 -0.3294 0.1612
vn -0.0445 -0.5978 0.8004
vn -0.9292 -0.3295 0.1672
vn -0.5957 -0.3342 -0.7304
vn 0.5848 -0.3338 -0.7393
vn 0.8100 -0.0201 0.5860
vn -0.4149 -0.3689 0.8318
vn -0.9819 -0.1859 -0.0367
vn -0.3209 -0.1055 -0.9412
vn 0.7726 -0.1822 -0.6082
vn 0.2617 0.7785 0.5705
vn -0.3778 0.7449 0.5499
vn -0.7027 0.6218 -0.3457
vn 0.1832 0.7829 -0.5946
vn 0.6456 0.7621 -0.0493
vn 0.2751 0.9142 -0.2977
vn 0.2623 0.9208 -0.2888
vn 0.1864 0.7829 -0.5935
vn 0.0377 0.9279 -0.3709
vn 0.0053 0.8906 -0.4548
vn -0.6292 0.6281 -0.4578
vn -0.2527 0.9674 0.0189
vn -0.5816 0.8132 0.0225
vn -0.6422 0.7446 0.1821
vn -0.0167 0.9447 0.3276
vn -0.0822 0.8443 0.5296
vn 0.0521 0.7670 0.6395
vn 0.2808 0.9326 0.2268
vn 0.3530 0.8931 0.2788
vn 0.6411 0.7626 0.0868
vn 0.9527 0.0648 -0.2971
vn 0.7797 -0.1187 -0.6149
vn 0.5522 0.0266 -0.8333
vn 0.0515 0.0311 -0.9982
vn -0.3186 -0.1618 -0.9340
vn -0.6865 0.0416 -0.7260
vn -0.9311 0.1678 -0.3238
vn -0.9988 0.0218 -0.0428
vn -0.9733 0.1412 0.1810
vn -0.4675 0.1332 0.8739
vn -0.4273 0.1109 0.8973
vn -0.0244 0.3224 0.9463
vn 0.5433 0.1105 0.8322
vn 0.8090 -0.0725 0.5834
vn 0.9489 0.1057 0.2974
vn 0.3200 -0.1314 -0.9383
vn 0.3186 -0.1610 -0.9341
vn 0.0087 -0.3318 -0.9433
vn -0.7830 -0.0447 -0.6204
vn -0.7664 -0.2176 -0.6044
vn -0.8624 -0.3747 -0.3404
vn -0.8048 -0.1299 0.5791
vn -0.8072 -0.0994 0.5819
vn -0.3772 -0.3378 0.8624
vn 0.4326 0.0382 0.9008
vn 0.4147 -0.3732 0.8299
vn 0.3516 -0.3297 0.8762
vn 0.9938 -0.1040 -0.0394
vn 0.9770 -0.2102 -0.0360
vn 0.8612 -0.3706 -0.3478
vn 0.5453 -0.5990 -0.5864
vn 0.1940 -0.7787 -0.5967
vn -0.0503 -0.6285 -0.7762
vn -0.4637 -0.6238 -0.6292
vn -0.5416 -0.7402 -0.3983
vn -0.7332 -0.6298 -0.2566
vn -0.7630 -0.6440 0.0561
vn -0.4369 -0.8531 0.2851
vn -0.2509 -0.5888 0.7684
vn 0.7213 -0.5994 -0.3469
vn 0.6610 -0.7458 -0.0830
vn 0.2741 -0.9578 -0.0859
vn -0.0404 -0.5760 0.8165
vn 0.1719 -0.7092 0.6837
vn 0.3039 -0.6539 0.6928
usemtl None
s off
f 1/1/1 14/2/1 13/3/1
f 2/4/2 14/5/2 16/6/2
f 1/1/3 13/3/3 18/7/3
f 1/1/4 18/7/4 20/8/4
f 1/1/5 20/8/5 17/9/5
f 2/4/6 16/6/6 23/10/6
f 3/11/7 15/12/7 25/13/7
f 4/14/8 19/15/8 27/16/8
f 5/17/9 21/18/9 29/19/9
f 6/20/10 22/21/10 31/22/10
f 2/4/11 23/10/11 26/23/11
f 3/11/12 25/13/12 28/24/12
f 4/14/13 27/16/13 30/25/13
f 5/17/14 29/19/14 32/26/14
f 6/27/15 31/28/15 24/29/15
f 7/30/16 33/31/16 38/32/16
f 8/33/17 34/34/17 40/35/17
f 9/36/18 35/37/18 41/38/18
f 10/39/19 36/40/19 42/41/19
f 11/42/20 37/43/20 39/44/20
f 39/45/21 42/46/21 12/47/21
f 39/45/22 37/48/22 42/46/22
f 37/48/23 10/49/23 42/46/23
f 42/46/24 41/50/24 12/47/24
f 42/46/25 36/51/25 41/50/25
f 36/52/26 9/53/26 41/54/26
f 41/55/27 40/35/27 12/56/27
f 41/55/28 35/57/28 40/35/28
f 35/58/29 8/59/29 40/60/29
f 40/35/30 38/61/30 12/56/30
f 40/35/31 34/34/31 38/61/31
f 34/62/32 7/63/32 38/64/32
f 38/65/33 39/45/33 12/47/33
f 38/65/34 33/66/34 39/45/34
f 33/67/35 11/42/35 39/44/35
f 24/29/36 37/68/36 11/69/36
f 24/29/37 31/28/37 37/68/37
f 31/22/38 10/70/38 37/71/38
f 32/26/39 36/72/39 10/73/39
f 32/26/40 29/19/40 36/72/40
f 29/19/41 9/74/41 36/72/41
f 30/25/42 35/75/42 9/76/42
f 30/25/43 27/16/43 35/75/43
f 27/16/44 8/77/44 35/75/44
f 28/24/45 34/78/45 8/79/45
f 28/24/46 25/13/46 34/78/46
f 25/13/47 7/80/47 34/78/47
f 26/81/48 33/82/48 7/83/48
f 26/84/49 23/85/49 33/86/49
f 23/10/50 11/69/50 33/87/50
f 31/22/51 32/88/51 10/70/51
f 31/22/52 22/21/52 32/88/52
f 22/21/53 5/89/53 32/88/53
f 29/90/54 30/25/54 9/76/54
f 29/90/55 21/91/55 30/25/55
f 21/91/56 4/14/56 30/25/56
f 27/16/57 28/92/57 8/77/57
f 27/16/58 19/15/58 28/92/58
f 19/93/59 3/11/59 28/24/59
f 25/13/60 26/94/60 7/80/60
f 25/13/61 15/12/61 26/94/61
f 15/95/62 2/96/62 26/97/62
f 23/10/63 24/29/63 11/69/63
f 23/10/64 16/6/64 24/29/64
f 16/6/65 6/27/65 24/29/65
f 17/98/66 22/99/66 6/100/66
f 17/98/67 20/101/67 22/99/67
f 20/102/68 5/103/68 22/104/68
f 20/8/69 21/105/69 5/106/69
f 20/8/70 18/7/70 21/105/70
f 18/107/71 4/14/71 21/91/71
f 18/107/72 19/15/72 4/14/72
f 18/7/73 13/3/73 19/108/73
f 13/3/74 3/109/74 19/108/74
f 16/6/75 17/110/75 6/27/75
f 16/111/76 14/112/76 17/113/76
f 14/112/77 1/114/77 17/113/77
f 13/115/78 15/12/78 3/11/78
f 13/3/79 14/2/79 15/116/79
f 14/117/80 2/118/80 15/119/80
